<?xml version="1.0" standalone="no"?>
<!DOCTYPE svg PUBLIC "-//W3C//DTD SVG 20010904//EN" "http://www.w3.org/TR/2001/REC-SVG-20010904/DTD/svg10.dtd">
<!-- Created using Krita: https://krita.org -->
<svg xmlns="http://www.w3.org/2000/svg" 
    xmlns:xlink="http://www.w3.org/1999/xlink"
    xmlns:krita="http://krita.org/namespaces/svg/krita"
    xmlns:sodipodi="http://sodipodi.sourceforge.net/DTD/sodipodi-0.dtd"
    width="46.08pt"
    height="46.08pt"
    viewBox="0 0 46.08 46.08">
<defs/>
<path id="shape0" transform="matrix(1.28235616807161 0 0 1.28235616807161 2.69999999999976 2.92302162227247)" fill="none" stroke="#696969" stroke-width="2.87999999999977" stroke-linecap="round" stroke-linejoin="round" d="M19.0462 25.1465L10.1658 24.7165L0.0471218 23.5046M0.0136927 30.9031L21.889 31.0877L26.8292 20.7325L32.144 8.33275L29.7171 1.12248L19.4828 1.22109L9.33627 0L4.15294 13.2481L0 23.3302" sodipodi:nodetypes="cccccccccccc"/><path id="shape1" transform="matrix(1.28235616807161 0 0 1.28235616807161 15.2129490837468 8.15759424077804)" fill="none" stroke="#696969" stroke-width="2.87999999999977" stroke-linecap="round" stroke-linejoin="round" d="M1.60927 0L7.95818 1.38524L13.8369 1.01766L11.7731 6.0891L7.09811 5.85835L0 5.01936Z" sodipodi:nodetypes="ccccccc"/><path id="shape01" transform="matrix(1.28235616807161 0 0 1.28235616807161 26.5963533557577 5.00397139935778)" fill="none" stroke="#696969" stroke-width="2.87999999999977" stroke-linecap="round" stroke-linejoin="round" d="M2.53383 28.8958L0 23.1909L4.48377 12.7333L9.98732 0" sodipodi:nodetypes="cccc"/><path id="shape02" transform="matrix(1.28235616807161 0 0 1.28235616807161 5.7608642108811 33.4197235322716)" fill="none" stroke="#696969" stroke-width="2.87999999999977" stroke-linecap="round" stroke-linejoin="round" d="M0.210646 0L1.25513 3.43034L0 6.58387" sodipodi:nodetypes="ccc"/><path id="shape03" transform="matrix(1.28235616807161 0 0 1.28235616807161 34.2977072285979 10.6441940845806)" fill="none" stroke="#696969" stroke-width="2.87999999999977" stroke-linecap="round" stroke-linejoin="round" d="M2.56381 12.3949L0 5.14038L2.56179 0L5.31378 7.95277Z" sodipodi:nodetypes="ccccc"/>
</svg>
